<?xml version="1.0" standalone="no"?>
<!DOCTYPE svg PUBLIC "-//W3C//DTD SVG 20010904//EN"
 "http://www.w3.org/TR/2001/REC-SVG-20010904/DTD/svg10.dtd">
<svg version="1.0" xmlns="http://www.w3.org/2000/svg"
 width="192.000000pt" height="192.000000pt" viewBox="0 0 192.000000 192.000000"
 preserveAspectRatio="xMidYMid meet">
<metadata>
Created by potrace 1.14, written by Peter Selinger 2001-2017
</metadata>
<g transform="translate(0.000000,192.000000) scale(0.100000,-0.100000)"
fill="#000000" stroke="none">
<path d="M885 1845 c-33 -18 -71 -40 -85 -48 -14 -7 -97 -56 -185 -107 -88
-51 -180 -104 -205 -118 -129 -72 -180 -106 -181 -121 -7 -103 -2 -969 6 -984
8 -16 175 -127 191 -127 2 0 25 -13 51 -28 65 -39 367 -214 425 -246 26 -14
53 -26 60 -26 7 0 103 52 213 116 110 64 229 132 265 151 36 20 70 39 75 43 6
5 27 17 48 29 20 12 54 31 75 42 20 12 40 26 44 33 12 17 10 984 -2 1006 -5
10 -44 38 -86 62 -43 24 -89 50 -103 58 -14 8 -53 31 -86 49 -33 19 -123 71
-200 116 -188 111 -234 135 -248 135 -7 0 -39 -16 -72 -35z"/>
</g>
</svg>
